HIERARCHY
ROOT SpineBase
{
  OFFSET 0.000000 0.000000 0.000000
  CHANNELS 6 Xposition Yposition Zposition Zrotation Xrotation Yrotation
  JOINT SpineMid
  {
    OFFSET -0.000000 34.407617 0.000000
    CHANNELS 3 Zrotation Xrotation Yrotation
    JOINT SpineShoulder
    {
      OFFSET 1.020984 25.523709 -0.384655
      CHANNELS 3 Zrotation Xrotation Yrotation
      JOINT Neck
      {
        OFFSET 0.569083 8.378575 -0.315040
        CHANNELS 3 Zrotation Xrotation Yrotation
        JOINT Head
        {
          OFFSET -2.861482 10.493040 6.320613
          CHANNELS 3 Zrotation Xrotation Yrotation
          End Site
          {
            OFFSET 0 0 0
          }
        }
      }
      JOINT ShoulderLeft
      {
        OFFSET -13.357093 -5.865815 -19.925816
        CHANNELS 3 Zrotation Xrotation Yrotation
        JOINT ElbowLeft
        {
          OFFSET 1.713631 -27.655937 1.427633
          CHANNELS 3 Zrotation Xrotation Yrotation
          JOINT WristLeft
          {
            OFFSET -10.926059 -10.544614 11.655468
            CHANNELS 3 Zrotation Xrotation Yrotation
            JOINT HandLeft
            {
              OFFSET 2.003605 -6.161841 -6.169955
              CHANNELS 3 Zrotation Xrotation Yrotation
              JOINT HandTipLeft
              {
                OFFSET -0.378439 -0.828499 -0.405337
                CHANNELS 3 Zrotation Xrotation Yrotation
                End Site
                {
                  OFFSET 0 0 0
                }
              }
              JOINT ThumbLeft
              {
                OFFSET -0.469326 -0.093874 -2.747189
                CHANNELS 3 Zrotation Xrotation Yrotation
                End Site
                {
                  OFFSET 0 0 0
                }
              }
            }
          }
        }
      }
      JOINT ShoulderRight
      {
        OFFSET -1.824268 -4.554278 -13.938404
        CHANNELS 3 Zrotation Xrotation Yrotation
        JOINT ElbowRight
        {
          OFFSET -8.959638 -26.461529 -4.181303
          CHANNELS 3 Zrotation Xrotation Yrotation
          JOINT WristRight
          {
            OFFSET -8.672271 -22.781914 1.962698
            CHANNELS 3 Zrotation Xrotation Yrotation
            JOINT HandRight
            {
              OFFSET -1.849484 -8.576889 1.335325
              CHANNELS 3 Zrotation Xrotation Yrotation
              JOINT HandTipRight
              {
                OFFSET -2.148493 -7.918556 -0.962468
                CHANNELS 3 Zrotation Xrotation Yrotation
                End Site
                {
                  OFFSET 0 0 0
                }
              }
              JOINT ThumbRight
              {
                OFFSET 3.155024 -0.281039 0.768179
                CHANNELS 3 Zrotation Xrotation Yrotation
                End Site
                {
                  OFFSET 0 0 0
                }
              }
            }
          }
        }
      }
    }
  }
  JOINT HipLeft
  {
    OFFSET -6.586021 0.487297 -0.581687
    CHANNELS 3 Zrotation Xrotation Yrotation
    JOINT KneeLeft
    {
      OFFSET 14.381829 -30.739015 8.217117
      CHANNELS 3 Zrotation Xrotation Yrotation
      JOINT AnkleLeft
      {
        OFFSET 2.883940 -38.204418 3.228747
        CHANNELS 3 Zrotation Xrotation Yrotation
        JOINT FootLeft
        {
          OFFSET -8.041581 -1.316237 -13.190632
          CHANNELS 3 Zrotation Xrotation Yrotation
          End Site
          {
            OFFSET 0 0 0
          }
        }
      }
    }
  }
  JOINT HipRight
  {
    OFFSET 5.180739 1.458901 -7.420031
    CHANNELS 3 Zrotation Xrotation Yrotation
    JOINT KneeRight
    {
      OFFSET -11.392855 -35.210301 -4.578021
      CHANNELS 3 Zrotation Xrotation Yrotation
      JOINT AnkleRight
      {
        OFFSET 1.166767 -33.786641 -4.933791
        CHANNELS 3 Zrotation Xrotation Yrotation
        JOINT FootRight
        {
          OFFSET -5.726977 -6.420493 -2.687151
          CHANNELS 3 Zrotation Xrotation Yrotation
          End Site
          {
            OFFSET 0 0 0
          }
        }
      }
    }
  }
}
MOTION
Frames: 6
Frame Time: 0.033333
45.359753 76.320591 328.498405 0.000000 0.000000 30.163345 -0.000000 0.000000 -30.163345 -0.000000 0.000000 0.000000 -0.000000 0.000000 0.000000 0.000000 0.000000 0.000000 -0.000000 0.000000 0.000000 -0.000000 0.000000 0.000000 -0.000000 0.000000 0.000000 -0.000000 0.000000 0.000000 0.000000 0.000000 0.000000 0.000000 0.000000 0.000000 -0.000000 0.000000 0.000000 -0.000000 0.000000 0.000000 -0.000000 0.000000 0.000000 -0.000000 0.000000 0.000000 0.000000 0.000000 0.000000 0.000000 0.000000 0.000000 -0.000000 0.000000 -30.163345 -0.000000 0.000000 0.000000 -0.000000 0.000000 0.000000 0.000000 0.000000 0.000000 -0.000000 0.000000 -30.163345 -0.000000 0.000000 0.000000 -0.000000 0.000000 0.000000 0.000000 0.000000 0.000000
46.665372 76.385936 329.040308 0.974697 -0.271881 31.178407 0.183484 -0.405970 -31.132957 -0.420404 -0.032892 0.033518 -0.920760 0.558609 -0.068050 0.000000 0.000000 0.000000 -2.259280 0.687432 -0.114751 4.173642 2.815963 0.089768 -1.735857 0.370662 -0.165258 3.982772 -11.929542 2.269703 0.000000 0.000000 0.000000 0.000000 0.000000 0.000000 -0.920760 0.558609 -0.068050 -0.000000 0.000000 0.000000 -0.000000 0.000000 0.000000 -0.600050 -1.583155 0.494343 0.000000 0.000000 0.000000 0.000000 0.000000 0.000000 -2.020411 2.853706 -31.200687 2.231822 -1.121975 0.092499 -1.627568 2.690196 -0.067239 0.000000 0.000000 0.000000 -2.027082 2.246309 -31.082004 1.921341 -0.603295 -0.044785 -0.000000 0.000000 0.000000 0.000000 0.000000 0.000000
47.799199 76.448304 329.513682 1.812422 -0.503209 32.042754 0.346496 -0.774319 -31.951028 -0.739191 -0.076710 0.068991 -1.775292 1.057887 -0.122136 0.000000 0.000000 0.000000 -4.251852 1.278387 -0.186256 7.434636 4.931561 0.086005 -3.034268 0.533326 -0.389006 4.991076 -16.888644 3.400797 0.000000 0.000000 0.000000 0.000000 0.000000 0.000000 -1.775292 1.057887 -0.122136 -0.000000 0.000000 0.000000 -0.393841 -1.230011 0.199219 -0.660700 -1.546587 0.671417 0.000000 0.000000 0.000000 0.000000 0.000000 0.000000 -3.744632 5.455186 -32.007636 4.255584 -2.131256 0.215239 -2.607315 4.308488 -0.068262 0.000000 0.000000 0.000000 -3.694920 4.221690 -31.802421 3.553674 -1.126923 -0.063305 -0.555228 -0.829760 0.967233 0.000000 0.000000 0.000000
48.761231 76.507695 329.918527 2.512975 -0.693914 32.747310 0.492440 -1.101425 -32.611563 -0.955052 -0.131974 0.104772 -2.562988 1.496936 -0.164408 0.000000 0.000000 0.000000 -5.976252 1.769898 -0.227119 9.944018 6.508773 0.047889 -4.041480 0.379456 -0.630919 5.349410 -19.408115 4.017396 0.000000 0.000000 0.000000 0.000000 0.000000 0.000000 -2.562988 1.496936 -0.164408 -0.000000 0.000000 0.000000 -0.469276 -1.656776 0.276571 -0.897877 -1.930713 0.847051 0.000000 0.000000 0.000000 0.000000 0.000000 0.000000 -5.188964 7.740630 -32.606074 6.033718 -3.008961 0.353707 -3.044281 5.028022 -0.055856 0.000000 0.000000 0.000000 -5.038913 5.903254 -32.346287 4.904726 -1.572091 -0.063045 -0.784055 -1.149559 1.343091 0.000000 0.000000 0.000000
49.551470 76.564108 330.254843 3.076363 -0.844024 33.284461 0.624714 -1.384526 -33.109482 -1.067380 -0.198989 0.139551 -3.283416 1.875109 -0.196854 0.000000 0.000000 0.000000 -7.431639 2.160239 -0.248224 11.811509 7.661714 0.005415 -4.860823 -0.161994 -0.873201 5.534509 -20.407105 4.316587 0.000000 0.000000 0.000000 0.000000 0.000000 0.000000 -3.283416 1.875109 -0.196854 -0.000000 0.000000 0.000000 -0.464487 -1.958680 0.340940 -1.081062 -2.061661 0.921799 0.000000 0.000000 0.000000 0.000000 0.000000 0.000000 -6.367608 9.658228 -33.016549 8.125342 -4.370283 0.536370 -3.568643 5.557475 -0.014474 0.000000 0.000000 0.000000 -6.088704 7.275552 -32.730489 5.982892 -1.940780 -0.050095 -0.981124 -1.403312 1.646167 0.000000 0.000000 0.000000
50.169915 76.617544 330.522629 3.502677 -0.953606 33.647979 0.746462 -1.621549 -33.440554 -1.076008 -0.277928 0.172370 -3.936282 2.191962 -0.221273 0.000000 0.000000 0.000000 -8.617546 2.448525 -0.258607 13.110498 8.467491 -0.025898 -5.565676 -1.146303 -1.111657 5.697134 -20.163396 4.365762 0.000000 0.000000 0.000000 0.000000 0.000000 0.000000 -3.936282 2.191962 -0.221273 -0.000000 0.000000 0.000000 -0.379662 -2.135890 0.393018 -1.213475 -1.943119 0.897550 0.000000 0.000000 0.000000 0.000000 0.000000 0.000000 -7.291952 11.168431 -33.257114 9.353989 -4.985106 0.671063 -3.025656 4.657804 -0.014574 0.000000 0.000000 0.000000 -6.867936 8.328859 -32.967504 6.796329 -2.235287 -0.029228 -1.146899 -1.589530 1.876015 0.000000 0.000000 0.000000
